<svg width="125" height="21" viewBox="0 0 125 21" fill="none" xmlns="http://www.w3.org/2000/svg">
<path d="M0.328 20H2.968V11.672C2.968 9.752 2.752 7.712 2.608 5.888H2.728L4.576 9.584L10.432 20H13.288V2.312H10.648V10.568C10.648 12.488 10.864 14.624 11.008 16.448H10.888L9.04 12.704L3.184 2.312H0.328V20ZM24.673 20.312C29.209 20.312 32.377 16.784 32.377 11.096C32.377 5.408 29.209 2 24.673 2C20.137 2 16.993 5.408 16.993 11.096C16.993 16.784 20.137 20.312 24.673 20.312ZM24.673 17.888C21.745 17.888 19.849 15.224 19.849 11.096C19.849 6.944 21.745 4.424 24.673 4.424C27.601 4.424 29.521 6.944 29.521 11.096C29.521 15.224 27.601 17.888 24.673 17.888ZM36.0468 20H41.9508C45.8628 20 48.7188 18.32 48.7188 14.816C48.7188 12.416 47.2548 11.048 45.2388 10.616V10.496C46.8228 9.968 47.7588 8.36 47.7588 6.68C47.7588 3.488 45.1428 2.312 41.5188 2.312H36.0468V20ZM38.8308 9.704V4.496H41.2788C43.7748 4.496 45.0228 5.192 45.0228 7.04C45.0228 8.696 43.8948 9.704 41.2068 9.704H38.8308ZM38.8308 17.816V11.792H41.6388C44.4468 11.792 45.9828 12.68 45.9828 14.672C45.9828 16.832 44.3988 17.816 41.6388 17.816H38.8308ZM52.0546 20H62.3266V17.648H54.8386V2.312H52.0546V20ZM65.6534 20H70.8374C74.7734 20 77.3654 18.272 77.3654 14.888C77.3654 12.488 75.8774 11.072 73.6454 10.688V10.568C75.3734 10.04 76.3094 8.552 76.3094 6.752C76.3094 3.8 74.0054 2.504 70.4774 2.504H65.6534V20ZM67.0934 10.136V3.68H70.1654C73.2614 3.68 74.8694 4.544 74.8694 6.92C74.8694 8.912 73.4774 10.136 70.0214 10.136H67.0934ZM67.0934 18.8V11.288H70.5014C73.9814 11.288 75.9494 12.44 75.9494 14.888C75.9494 17.6 73.8854 18.8 70.5014 18.8H67.0934ZM80.9078 20H82.2998V11.408C83.2358 9.032 84.6038 8.192 85.7318 8.192C86.2358 8.192 86.4758 8.24 86.9078 8.408L87.1958 7.16C86.7878 6.944 86.4038 6.872 85.8998 6.872C84.4118 6.872 83.1398 7.976 82.2758 9.584H82.2278L82.0598 7.208H80.9078V20ZM94.171 20.312C96.019 20.312 97.219 19.712 98.251 19.064L97.723 18.032C96.763 18.704 95.683 19.136 94.315 19.136C91.555 19.136 89.707 16.952 89.635 13.832H98.707C98.755 13.52 98.779 13.184 98.779 12.824C98.779 9.08 96.931 6.872 93.835 6.872C90.955 6.872 88.219 9.464 88.219 13.616C88.219 17.816 90.883 20.312 94.171 20.312ZM89.635 12.728C89.899 9.8 91.771 8.072 93.859 8.072C96.091 8.072 97.507 9.632 97.507 12.728H89.635ZM104.623 20.312C106.255 20.312 107.791 19.424 109.087 18.368H109.135L109.279 20H110.455V11.888C110.455 9.056 109.375 6.872 106.327 6.872C104.239 6.872 102.463 7.88 101.479 8.552L102.103 9.56C102.991 8.888 104.455 8.096 106.135 8.096C108.559 8.096 109.111 10.064 109.063 11.96C103.423 12.608 100.903 13.952 100.903 16.784C100.903 19.16 102.559 20.312 104.623 20.312ZM104.911 19.136C103.495 19.136 102.295 18.464 102.295 16.712C102.295 14.744 104.023 13.568 109.063 12.992V17.144C107.551 18.464 106.327 19.136 104.911 19.136ZM119.164 20.312C120.82 20.312 122.236 19.424 123.268 18.392H123.34L123.484 20H124.636V0.92H123.244V6.128L123.34 8.432C122.092 7.448 121.06 6.872 119.524 6.872C116.5 6.872 113.86 9.488 113.86 13.616C113.86 17.912 115.948 20.312 119.164 20.312ZM119.404 19.088C116.812 19.088 115.348 16.928 115.348 13.616C115.348 10.472 117.22 8.096 119.668 8.096C120.868 8.096 121.972 8.528 123.244 9.68V17.072C121.972 18.392 120.772 19.088 119.404 19.088Z" fill="#08435E"/>
</svg>
